<?xml version="1.0" encoding="UTF-8"?>
<!DOCTYPE svg PUBLIC "-//W3C//DTD SVG 1.1//EN" "http://www.w3.org/Graphics/SVG/1.1/DTD/svg11.dtd">
<!-- Creator: CorelDRAW X8 -->
<svg xmlns="http://www.w3.org/2000/svg" xml:space="preserve" width="100%" height="100%" version="1.1" style="shape-rendering:geometricPrecision; text-rendering:geometricPrecision; image-rendering:optimizeQuality; fill-rule:evenodd; clip-rule:evenodd"
viewBox="0 0 195 208"
 xmlns:xlink="http://www.w3.org/1999/xlink">
 <defs>
  <style type="text/css">
   <![CDATA[
    .fil0 {fill:#FEFEFE}
    .fil1 {fill:#373435}
   ]]>
  </style>
 </defs>
 <g id="Capa_x0020_1">
  <metadata id="CorelCorpID_0Corel-Layer"/>
  <g id="_3078178065520">
   <path class="fil0" d="M45 176c0,-1 0,-3 0,-5 4,4 6,13 30,25 12,7 28,12 46,12 -10,-11 5,-14 19,-27 3,-3 6,-7 8,-10 0,2 0,3 -2,7 19,-10 28,-32 29,-50 2,1 4,4 5,7 12,-11 8,-52 -4,-62 -45,-1 -51,-1 -74,-27 -3,-4 -6,-4 -10,0 -25,29 -37,31 -74,26 -9,18 -11,46 2,61 0,-2 0,-4 1,-6 1,7 4,40 24,49z"/>
   <path class="fil0" d="M188 53c9,-13 13,-52 -13,-50 2,2 18,14 4,24 -20,15 -39,-11 -52,-22 -13,-10 -19,-3 -30,2 -11,-6 -20,-12 -31,0 -2,1 -3,3 -5,5 -6,5 -13,12 -20,16 -10,5 -21,4 -27,-2 -3,-4 -4,-8 -2,-13 2,-6 5,-7 8,-10 -21,-2 -26,28 -13,49 28,37 66,14 85,-10 5,-6 6,-5 11,0 14,16 31,30 56,27 10,-1 20,-6 29,-16z"/>
   <path class="fil1" d="M112 190c-45,2 -65,-41 -75,-68 1,28 30,83 75,68z"/>
   <path class="fil1" d="M48 117c-2,28 7,43 28,41 -20,-6 -27,-23 -28,-41z"/>
   <path class="fil1" d="M163 130c22,-14 8,-40 1,-48 12,23 9,38 -3,46 -3,2 0,3 2,2z"/>
  </g>
 </g>
</svg>
