<?xml version="1.0" encoding="UTF-8"?>
<!DOCTYPE svg PUBLIC "-//W3C//DTD SVG 1.1//EN" "http://www.w3.org/Graphics/SVG/1.1/DTD/svg11.dtd">
<!-- Creator: CorelDRAW X8 -->
<svg xmlns="http://www.w3.org/2000/svg" xml:space="preserve" width="215.9mm" height="279.4mm" version="1.1" style="shape-rendering:geometricPrecision; text-rendering:geometricPrecision; image-rendering:optimizeQuality; fill-rule:evenodd; clip-rule:evenodd"
viewBox="0 0 21590 27940"
 xmlns:xlink="http://www.w3.org/1999/xlink">
 <defs>
  <style type="text/css">
   <![CDATA[
    .str0 {stroke:#282829;stroke-width:20}
    .str1 {stroke:#282829;stroke-width:7.62}
    .fil2 {fill:#FEFEFE}
    .fil5 {fill:#FEFEFE}
    .fil3 {fill:#373435}
    .fil7 {fill:#ED3237}
    .fil8 {fill:#ED3237}
    .fil0 {fill:#282829}
    .fil6 {fill:#333771}
    .fil4 {fill:white}
    .fil1 {fill:#FEFEFE;fill-rule:nonzero}
   ]]>
  </style>
 </defs>
 <g id="Capa_x0020_1">
  <metadata id="CorelCorpID_0Corel-Layer"/>
  <g id="_3078098810208">
   <rect class="fil0 str0" x="5807" y="4693" width="8670" height="635"/>
   <g>
    <path class="fil1" d="M13343 4966l-53 0 0 -58 -58 0 0 58 -53 0 0 -115c0,-9 4,-16 10,-21 7,-5 16,-8 28,-8l88 0c12,0 21,3 28,8 7,5 10,12 10,21l0 115zm-53 -87l0 -18 -58 0 0 18 58 0z"/>
    <path class="fil1" d="M13523 4853l0 15c0,7 -1,13 -4,16 -2,4 -8,7 -16,9 7,3 12,5 15,7 3,4 5,9 5,17l0 49 -52 0 0 -53 -55 0 0 53 -52 0 0 -144 119 0c14,0 24,3 31,7 6,5 9,13 9,24zm-52 27l0 -19 -55 0 0 19 55 0z"/>
    <path class="fil1" d="M13693 4891c6,2 9,4 10,6 3,3 5,8 5,16l0 21c0,10 -3,18 -7,23 -6,6 -15,9 -30,9l-128 0 0 -144 129 0c12,0 21,3 27,7 6,5 9,12 9,21l0 21c0,4 -1,7 -3,10 -2,3 -6,6 -12,10zm-38 -12l0 -18 -59 0 0 18 59 0zm0 48l0 -19 -59 0 0 19 59 0z"/>
    <polygon class="fil1" points="13869,4861 13781,4861 13781,4878 13869,4878 13869,4910 13780,4910 13780,4927 13868,4927 13868,4966 13727,4966 13727,4822 13869,4822 "/>
    <path class="fil1" d="M14049 4853l0 15c0,7 -2,13 -5,16 -2,4 -8,7 -16,9 8,3 12,5 15,7 4,4 5,9 5,17l0 49 -52 0 0 -53 -55 0 0 53 -52 0 0 -144 119 0c14,0 25,3 31,7 6,5 10,13 10,24zm-53 27l0 -19 -55 0 0 19 55 0z"/>
    <path class="fil1" d="M14122 4966l-53 0 0 -144 53 0 0 144zm10 -177l-39 26 -16 0 22 -26 33 0zm174 177l-53 0 0 -58 -58 0 0 58 -53 0 0 -115c0,-9 4,-16 11,-21 6,-5 16,-8 27,-8l89 0c11,0 20,3 27,8 7,5 10,12 10,21l0 115zm-53 -87l0 -18 -58 0 0 18 58 0z"/>
    <path class="fil1" d="M13145 4862c7,3 11,6 13,8 4,4 6,12 6,23l0 28c0,14 -3,25 -9,32 -8,8 -21,12 -41,12l-177 0 0 -66c1,0 2,0 3,0l6 -1 1 7c-5,0 -9,4 -8,8l0 0c0,4 5,7 11,6l1 8 -7 1c-2,0 -4,2 -4,3l0 0c0,2 3,3 5,3l29 -3c3,0 5,-2 4,-4l0 0c0,-2 -2,-3 -5,-3l-3 1 -2 -8c5,-1 8,-4 8,-8l0 0c-1,-4 -5,-6 -10,-6l-1 -7 4 0c2,-1 4,-2 4,-4l0 0c-1,-2 -3,-3 -5,-3l-4 0 -3 -17c6,-3 10,-8 9,-13 -1,-5 -6,-10 -12,-11l-3 -16 4 -1c2,0 4,-1 4,-3l0 0c0,-2 -3,-3 -5,-3l-4 0 -1 -8c4,-1 8,-5 7,-8l0 0c-1,-4 -5,-7 -9,-7l-1 -5 3 -1c3,0 5,-2 4,-4l0 0c0,-1 -2,-3 -5,-2l-15 1 0 -24 178 0c17,0 29,3 37,10 8,6 12,15 12,29l0 28c0,6 -1,11 -3,14 -3,4 -8,8 -16,14zm-208 30l0 -20c2,1 4,2 6,2l2 17 -6 1c-1,0 -1,0 -2,0zm0 -41l0 -10 2 9c-1,0 -1,0 -2,1zm155 -6l0 -25 -81 0 0 25 81 0zm0 66l0 -26 -81 0 0 26 81 0z"/>
    <path class="fil2 str1" d="M12893 4957c-9,-58 -18,-116 -28,-174 7,0 15,-1 22,-2 1,2 3,4 5,5 3,2 8,1 9,-2 2,-6 -5,-19 4,-20 17,-2 34,-4 50,-6 14,-1 12,4 13,11 1,7 2,9 7,9 3,-1 5,-4 5,-7 9,-1 17,-2 26,-3 9,58 18,116 28,174 -9,1 -17,2 -26,3 -4,-12 -12,-9 -13,-5 0,2 1,6 2,10 1,7 -2,11 -12,13 -14,1 -28,3 -41,4 -11,1 -14,-2 -14,-9 0,-6 -2,-9 -4,-11 -2,-2 -7,-1 -9,1 -1,2 -2,4 -2,7 -8,0 -15,1 -22,2zm47 -26l0 0c0,-1 2,-3 4,-3l7 -1 -1 -8c-6,1 -11,-2 -11,-6l0 0c-1,-4 3,-8 8,-8l-1 -7 -6 1c-3,0 -5,-1 -5,-3l0 0c-1,-2 1,-4 4,-4l6 -1 -2 -17c-7,-1 -12,-5 -13,-11 0,-5 3,-10 9,-13l-3 -16 -6 1c-3,0 -5,-1 -5,-3l0 0c-1,-2 1,-4 4,-4l6 -1 -1 -8c-5,1 -10,-2 -11,-6l0 0c-1,-4 3,-8 9,-9l-1 -5 -7 0c-2,1 -4,-1 -5,-2l0 0c0,-2 2,-4 4,-4l29 -3c3,-1 5,1 5,2l0 0c1,2 -1,4 -4,4l-3 1 1 5c4,0 8,3 9,7l0 0c1,3 -3,7 -7,8l1 8 4 0c2,0 5,1 5,3l0 0c0,2 -2,3 -4,3l-4 1 3 16c6,1 11,6 12,11 1,5 -3,10 -9,13l3 17 4 0c2,0 4,1 5,3l0 0c0,2 -2,3 -4,4l-4 0 1 7c5,0 9,2 10,6l0 0c0,4 -3,7 -8,8l2 8 3 -1c3,0 5,1 5,3l0 0c1,2 -1,4 -4,4l-29 3c-2,0 -5,-1 -5,-3z"/>
    <g>
     <path class="fil2" d="M12566 4904c15,-4 45,-2 56,5 8,5 5,14 2,22 -4,7 -8,11 -15,14 -8,4 -18,5 -28,4 -23,-3 -30,-12 -29,-30 0,-10 3,-13 14,-15zm127 -1c9,-1 21,-1 29,1 9,2 14,7 13,17 -2,21 -10,26 -34,28 -10,1 -19,-2 -26,-5 -7,-4 -11,-9 -14,-16 -7,-23 9,-23 32,-25zm-149 -52c22,-2 43,-16 56,-25 26,-19 12,3 60,8 45,4 58,-8 77,5 14,9 11,46 12,63 -30,-10 -48,-9 -82,-2 -5,1 -20,6 -24,6 -3,0 -20,-5 -25,-6 -8,-2 -17,-3 -26,-4 -25,-2 -34,0 -54,6 0,-5 0,-10 2,-15 1,-3 2,-5 3,-9 1,-9 1,-18 1,-27zm40 -60c5,-4 17,-10 26,-13 10,-3 22,-6 34,-4 22,3 35,17 38,36 -5,-3 -12,-21 -39,-27 -25,-5 -41,3 -59,8zm140 160c13,-3 13,-4 16,-15 3,-8 1,-19 8,-23 0,5 -1,8 0,12 0,0 0,0 0,1 5,-23 15,-21 24,-53 1,-5 1,-9 4,-14 6,-12 -3,-32 -11,-44 0,-1 1,-2 4,-2 -6,-9 -16,-11 -25,-16 3,0 6,1 9,1 -7,-5 -15,-6 -24,-7 -1,-3 -2,-7 -5,-8 0,0 0,2 -1,2 -9,-15 -24,-27 -49,-32 -34,-7 -48,2 -71,8 2,-2 8,-7 10,-8 -22,7 -28,15 -39,20 1,-2 2,-4 3,-6 -11,3 -19,21 -26,28 -1,-1 -1,-3 0,-4 -5,-1 -27,24 -28,27 0,-1 -1,-2 0,-3 -4,0 -16,19 -13,29 -2,-2 -4,-4 -6,-6 1,15 9,15 13,17 1,13 3,28 5,41 2,6 12,28 16,32 0,-5 0,-10 0,-15 7,3 5,8 6,15 4,18 5,20 20,24 8,2 14,3 22,3 53,0 48,-36 52,-40 5,-1 6,-1 11,1 2,2 1,14 10,25 12,15 47,15 65,10z"/>
     <path class="fil2" d="M12590 5149c0,-2 0,-4 0,-6 4,4 6,13 29,26 13,6 28,12 46,12 -9,-12 6,-15 20,-28 3,-2 6,-7 8,-10 0,2 0,4 -2,7 18,-9 28,-32 29,-49 2,1 3,4 4,6 13,-11 8,-52 -3,-62 -45,0 -52,0 -74,-27 -3,-4 -7,-4 -10,0 -25,29 -38,31 -74,26 -10,18 -11,47 1,62 1,-3 1,-5 2,-7 1,7 4,41 24,50z"/>
     <path class="fil2" d="M12733 5025c9,-12 13,-52 -13,-49 2,2 17,13 3,24 -19,14 -38,-12 -51,-22 -13,-11 -19,-3 -30,1 -11,-6 -20,-12 -32,0 -1,1 -2,3 -5,5 -5,6 -12,13 -19,16 -10,5 -21,5 -27,-2 -3,-3 -4,-8 -2,-13 2,-6 5,-7 8,-9 -21,-3 -26,27 -14,48 28,38 67,15 86,-10 5,-6 6,-5 11,0 13,16 30,31 56,28 10,-1 20,-6 29,-17z"/>
     <path class="fil3" d="M12584 4791c18,-5 34,-13 59,-8 27,6 34,24 39,27 -3,-19 -16,-33 -38,-36 -12,-2 -24,1 -34,4 -9,3 -21,9 -26,13z"/>
     <path class="fil3" d="M12657 5162c-46,2 -65,-41 -76,-68 2,28 31,83 76,68z"/>
     <path class="fil3" d="M12592 5089c-1,28 8,43 29,42 -20,-7 -27,-23 -29,-42z"/>
     <path class="fil3" d="M12708 5102c22,-13 8,-40 1,-48 12,24 9,38 -3,46 -3,2 0,3 2,2z"/>
     <g>
      <path class="fil3" d="M12533 4829c8,17 31,11 66,-15 -27,14 -52,24 -66,15z"/>
      <path class="fil3" d="M12551 4820c10,3 24,0 37,-5 -22,11 -41,18 -46,8 5,2 11,2 18,1 -4,-1 -7,-2 -9,-4z"/>
      <path class="fil3" d="M12551 4815c19,2 34,-13 53,-16 -8,-1 -18,1 -27,4 41,-15 41,-5 61,7 -33,-17 -59,11 -87,5z"/>
     </g>
     <g>
      <path class="fil3" d="M12676 4816c-2,-16 -17,-25 -37,-30 19,8 33,18 37,30z"/>
      <path class="fil3" d="M12653 4797c7,3 12,6 16,11 1,2 -1,4 -2,1 -3,-6 -9,-8 -14,-12z"/>
     </g>
     <g>
      <path class="fil3" d="M12689 4815c25,-16 19,-31 -12,-44 19,13 29,27 12,44z"/>
      <path class="fil3" d="M12697 4814c9,-6 13,-14 13,-24 2,3 2,6 1,10 5,-4 5,-9 0,-15 17,10 8,20 -14,29z"/>
      <path class="fil3" d="M12738 4799c-6,0 -11,2 -14,6 10,-2 19,-2 24,4 1,-7 -5,-8 -12,-7 0,-2 1,-2 2,-3z"/>
     </g>
    </g>
    <g>
     <path class="fil4" d="M12534 5257l325 0 89 0c11,-1 21,-3 27,-5 0,-1 4,-3 5,-3 23,-15 16,-43 16,-74 0,-40 -10,-55 -57,-54 -18,0 -36,0 -54,0 -16,0 -21,3 -24,-4 0,-3 0,-12 1,-13 2,-4 5,-3 11,-3 37,0 73,0 109,0l1 -49c0,-19 -3,-12 -70,-12 -20,0 -45,-1 -64,0 -30,3 -52,10 -53,42l-1 50c1,11 0,21 8,31 13,13 35,12 62,12 22,0 43,0 65,0 0,25 5,21 -31,21l-365 0 0 61z"/>
     <path class="fil4" d="M13524 5101l73 0 0 93 -73 0 0 -93zm-69 -56l0 207c0,4 1,5 5,5l160 0c42,0 48,-37 48,-72 0,-31 5,-106 -10,-126 -8,-10 -22,-19 -40,-19l-158 0c-4,0 -5,1 -5,5z"/>
     <path class="fil4" d="M13848 5182l0 -68c0,-7 2,-7 2,-13l64 0 0 93 -64 0c0,-5 -2,-6 -2,-12zm-69 -90l0 118c0,22 19,47 43,47l115 0c14,0 24,-6 31,-14l10 -13c7,-17 4,-118 4,-143 0,-28 -21,-47 -51,-47l-103 0c-30,0 -49,22 -49,52z"/>
     <path class="fil4" d="M13228 5045l0 173c0,22 23,39 38,39l117 0c11,-1 20,-2 24,-3 16,-5 27,-25 27,-31l0 -178c0,-4 -1,-5 -5,-5l-59 0c-4,0 -5,1 -5,5l0 149 -67 0 0 -149c0,-4 -2,-5 -6,-5l-58 0c-4,0 -6,1 -6,5z"/>
     <path class="fil4" d="M13015 5045l0 56 64 0c0,14 0,28 0,41 0,16 2,25 2,40 0,13 0,27 0,41 0,25 -6,32 8,34l65 0c0,-9 0,-19 0,-29 0,-12 -2,-15 -2,-26 0,-28 2,-54 2,-85 0,-20 -10,-16 36,-16 30,0 24,11 24,-61l-194 0c-4,0 -5,1 -5,5z"/>
     <path class="fil4" d="M13971 5027c0,17 9,17 31,23 4,1 5,2 12,3l26 6c12,2 14,4 28,4 25,0 9,-27 34,-16l3 1c25,11 32,10 21,41 -3,7 -4,14 -7,22 -5,14 -10,27 -16,40l-14 29c-2,4 -3,6 -5,10l-10 18c-14,26 -1,47 22,47 22,0 32,-31 42,-51l9 -24c1,-4 2,-5 4,-11 8,-28 16,-70 16,-99 0,-42 -41,-40 -71,-50 -8,-2 -16,-3 -24,-5 -30,-9 -55,-16 -87,-16 -7,0 -14,20 -14,28z"/>
     <path class="fil4" d="M13689 5045l0 207c0,4 1,5 5,5l61 0c4,0 5,-1 5,-5l0 -207c0,-4 -1,-5 -5,-5l-61 0c-4,0 -5,1 -5,5z"/>
    </g>
   </g>
   <polygon class="fil5" points="8105,4683 7922,5339 7699,5339 7870,4683 "/>
   <polygon class="fil6" points="7738,4693 7552,5338 7330,5338 7503,4693 "/>
   <polygon class="fil5" points="7355,4684 7169,5337 6946,5337 7120,4684 "/>
   <polygon class="fil5" points="6590,4684 6405,5337 6182,5337 6355,4684 "/>
   <polygon class="fil6" points="6221,4684 6035,5337 5812,5337 5985,4684 "/>
   <polygon class="fil7" points="6978,4684 6790,5337 6568,5337 6743,4684 "/>
   <polygon class="fil8" points="8493,4684 8306,5341 8083,5341 8257,4684 "/>
  </g>
 </g>
</svg>
