<?xml version="1.0" encoding="UTF-8"?>
<!DOCTYPE svg PUBLIC "-//W3C//DTD SVG 1.1//EN" "http://www.w3.org/Graphics/SVG/1.1/DTD/svg11.dtd">
<!-- Creator: CorelDRAW X8 -->
<svg xmlns="http://www.w3.org/2000/svg" xml:space="preserve" width="100%" height="100%" version="1.1" style="shape-rendering:geometricPrecision; text-rendering:geometricPrecision; image-rendering:optimizeQuality; fill-rule:evenodd; clip-rule:evenodd"
viewBox="0 0 356 327"
 xmlns:xlink="http://www.w3.org/1999/xlink">
 <defs>
  <style type="text/css">
   <![CDATA[
    .str0 {stroke:#373435;stroke-width:20}
    .str1 {stroke:#373435;stroke-width:7.62}
    .fil2 {fill:#FEFEFE}
    .fil0 {fill:#282829}
    .fil1 {fill:#FEFEFE;fill-rule:nonzero}
   ]]>
  </style>
 </defs>
 <g id="Capa_x0020_1">
  <metadata id="CorelCorpID_0Corel-Layer"/>
  <g id="_3078170461568">
   <ellipse class="fil0 str0" cx="178" cy="163" rx="168" ry="153"/>
   <g>
    <path class="fil1 str1" d="M308 163c7,3 12,5 14,8 4,4 6,12 6,23l0 28c0,14 -3,25 -10,31 -7,9 -21,13 -40,13l-177 0 0 -67c0,1 1,1 2,1l7 -1 1 7c-6,0 -10,4 -9,8l0 0c0,4 5,7 11,6l1 8 -6 0c-3,1 -5,2 -5,4l0 0c1,2 3,3 6,3l28 -3c3,0 5,-2 4,-4l0 0c0,-2 -2,-3 -5,-3l-3 1 -1 -8c4,-1 7,-4 7,-8l0 0c-1,-4 -5,-6 -10,-6l-1 -7 4 -1c2,0 4,-2 4,-3l0 0c0,-2 -3,-3 -5,-3l-4 0 -2 -17c5,-3 9,-8 8,-13 -1,-6 -6,-10 -12,-11l-3 -16 4 -1c2,0 4,-2 4,-3l0 0c0,-2 -3,-3 -5,-3l-4 0 -1 -8c5,-1 8,-5 7,-8l0 -1c0,-3 -4,-6 -9,-6l-1 -6 3 0c3,0 5,-2 5,-4l0 0c-1,-2 -3,-3 -6,-3l-14 2 0 -24 177 0c17,0 30,3 38,9 8,7 12,16 12,30l0 28c0,6 -2,10 -4,14 -3,4 -8,8 -16,14zm-207 30l0 -20c1,1 3,2 5,2l3 17 -7 1c0,0 -1,0 -1,0zm0 -42l0 -9 1 9c0,0 -1,0 -1,0zm154 -5l0 -25 -81 0 0 25 81 0zm0 66l0 -26 -81 0 0 26 81 0z"/>
    <path class="fil2 str1" d="M56 258c-9,-58 -18,-116 -28,-174 8,0 15,-1 22,-2 2,2 3,4 5,5 3,2 8,1 9,-2 3,-6 -5,-19 4,-20 17,-2 34,-4 51,-6 13,-2 11,4 12,11 1,7 2,9 7,8 3,0 5,-3 5,-6 9,-1 17,-2 26,-3 9,58 19,116 28,174 -9,1 -17,2 -26,3 -4,-12 -12,-9 -12,-5 -1,2 0,6 1,10 2,7 -2,11 -12,12 -14,2 -27,4 -41,5 -10,1 -13,-2 -14,-9 0,-6 -2,-9 -4,-11 -2,-2 -7,-1 -9,1 -1,2 -2,4 -2,6 -7,1 -14,2 -22,3zm47 -26l0 0c0,-2 2,-3 5,-4l6 0 -1 -8c-6,1 -11,-2 -11,-6l0 0c-1,-4 3,-8 9,-8l-1 -7 -7 1c-2,0 -5,-1 -5,-3l0 0c0,-2 1,-4 4,-4l7 -1 -3 -17c-7,-1 -12,-6 -12,-11 -1,-5 2,-10 8,-13l-2 -16 -7 1c-2,0 -5,-1 -5,-3l0 0c0,-2 2,-4 4,-4l7 -1 -2 -8c-5,0 -10,-2 -11,-6l0 0c0,-4 4,-8 9,-9l-1 -6 -6 1c-3,0 -5,-1 -6,-3l0 0c0,-1 2,-3 5,-3l28 -4c3,0 5,1 6,3l0 0c0,2 -2,4 -5,4l-3 0 1 6c5,0 9,3 9,6l0 1c1,3 -2,7 -7,8l1 8 4 0c2,0 5,1 5,3l0 0c0,1 -2,3 -4,3l-4 1 3 16c6,1 11,5 12,11 1,5 -3,10 -8,13l2 17 4 0c2,0 5,1 5,3l0 0c0,1 -2,3 -4,3l-4 1 1 7c5,0 9,2 10,6l0 0c0,4 -3,7 -7,8l1 8 3 -1c3,0 5,1 5,3l0 0c1,2 -1,4 -4,4l-28 3c-3,0 -5,-1 -6,-3z"/>
   </g>
  </g>
 </g>
</svg>
