<?xml version="1.0" encoding="UTF-8"?>
<!DOCTYPE svg PUBLIC "-//W3C//DTD SVG 1.1//EN" "http://www.w3.org/Graphics/SVG/1.1/DTD/svg11.dtd">
<!-- Creator: CorelDRAW X8 -->
<svg xmlns="http://www.w3.org/2000/svg" xml:space="preserve" width="100%" height="100%" version="1.1" style="shape-rendering:geometricPrecision; text-rendering:geometricPrecision; image-rendering:optimizeQuality; fill-rule:evenodd; clip-rule:evenodd"
viewBox="0 0 1802 507"
 xmlns:xlink="http://www.w3.org/1999/xlink">
 <defs>
  <style type="text/css">
   <![CDATA[
    .str0 {stroke:#282829;stroke-width:7.62}
    .fil1 {fill:#FEFEFE}
    .fil2 {fill:#373435}
    .fil3 {fill:white}
    .fil0 {fill:#FEFEFE;fill-rule:nonzero}
   ]]>
  </style>
 </defs>
 <g id="Capa_x0020_1">
  <metadata id="CorelCorpID_0Corel-Layer"/>
  <g id="_3077973603760">
   <path class="fil0" d="M839 216l-53 0 0 -59 -58 0 0 59 -53 0 0 -115c0,-9 3,-16 10,-21 7,-6 16,-8 28,-8l88 0c12,0 21,2 28,8 7,5 10,12 10,21l0 115zm-53 -88l0 -18 -58 0 0 18 58 0z"/>
   <path class="fil0" d="M1019 102l0 16c0,7 -1,13 -4,16 -3,3 -8,6 -16,9 7,2 12,5 14,7 4,3 6,9 6,17l0 49 -52 0 0 -54 -55 0 0 54 -52 0 0 -144 119 0c14,0 24,2 31,7 6,5 9,12 9,23zm-52 27l0 -18 -55 0 0 18 55 0z"/>
   <path class="fil0" d="M1189 140c5,3 9,5 10,6 3,4 5,9 5,17l0 20c0,11 -3,18 -7,23 -6,6 -16,10 -30,10l-128 0 0 -144 129 0c12,0 21,2 27,7 6,4 9,11 9,21l0 20c0,4 -1,8 -3,11 -2,2 -6,5 -12,9zm-38 -12l0 -18 -59 0 0 18 59 0zm0 48l0 -19 -59 0 0 19 59 0z"/>
   <polygon class="fil0" points="1365,111 1277,111 1277,127 1365,127 1365,160 1276,160 1276,176 1364,176 1364,216 1223,216 1223,72 1365,72 "/>
   <path class="fil0" d="M1544 102l0 16c0,7 -1,13 -4,16 -2,3 -8,6 -16,9 7,2 12,5 15,7 3,3 5,9 5,17l0 49 -52 0 0 -54 -55 0 0 54 -52 0 0 -144 119 0c14,0 24,2 31,7 6,5 9,12 9,23zm-52 27l0 -18 -55 0 0 18 55 0z"/>
   <path class="fil0" d="M1618 216l-53 0 0 -144 53 0 0 144zm10 -178l-39 26 -16 0 22 -26 33 0zm174 178l-53 0 0 -59 -58 0 0 59 -53 0 0 -115c0,-9 4,-16 10,-21 7,-6 16,-8 28,-8l88 0c12,0 21,2 28,8 7,5 10,12 10,21l0 115zm-53 -88l0 -18 -58 0 0 18 58 0z"/>
   <path class="fil0" d="M640 111c8,3 12,6 14,8 4,5 6,13 6,23l0 28c0,15 -3,25 -9,32 -8,9 -21,13 -41,13l-177 0 0 -67c1,0 2,0 3,0l6 0 1 6c-5,1 -9,5 -9,9l0 0c1,4 6,6 11,6l2 7 -7 1c-2,0 -4,2 -4,4l0 0c0,2 3,3 5,3l29 -3c2,-1 4,-2 4,-4l0 0c0,-2 -3,-3 -5,-3l-4 0 -1 -7c5,-1 8,-5 7,-8l0 -1c0,-3 -4,-6 -9,-6l-1 -6 3 -1c3,0 5,-2 5,-4l0 0c-1,-1 -3,-3 -6,-2l-3 0 -3 -17c6,-3 9,-8 9,-14 -1,-5 -6,-9 -13,-11l-2 -16 3 0c3,0 5,-2 5,-4l0 0c-1,-2 -3,-3 -6,-2l-3 0 -1 -9c4,-1 7,-4 7,-8l0 0c-1,-3 -5,-6 -10,-6l-1 -6 4 0c3,-1 4,-2 4,-4l0 0c0,-2 -2,-3 -5,-3l-15 2 0 -24 178 0c17,0 29,3 37,9 8,6 12,16 12,29l0 28c0,6 -1,11 -4,15 -2,3 -7,8 -16,13zm-207 31l0 -20c2,1 4,1 5,2l3 17 -6 1c-1,0 -1,0 -2,0zm0 -42l0 -9 2 8c-1,1 -1,1 -2,1zm155 -5l0 -25 -82 0 0 25 82 0zm0 66l0 -26 -82 0 0 26 82 0z"/>
   <path class="fil1 str0" d="M389 207c-9,-58 -19,-116 -28,-174 7,-1 14,-2 22,-2 1,2 3,3 5,5 3,2 7,0 9,-3 2,-5 -6,-18 4,-20 17,-2 33,-3 50,-5 14,-2 12,3 13,10 1,7 2,10 7,9 3,0 5,-3 5,-6 8,-1 17,-2 25,-3 10,57 19,115 28,173 -8,1 -17,2 -25,3 -4,-11 -12,-8 -13,-5 0,2 0,6 2,11 1,6 -2,11 -13,12 -13,2 -27,3 -40,5 -11,1 -14,-2 -14,-9 0,-6 -2,-10 -4,-12 -2,-1 -7,0 -9,2 -1,1 -2,4 -3,6 -7,1 -14,2 -21,3zm47 -26l0 0c0,-2 2,-4 4,-4l7 -1 -2 -7c-5,0 -10,-2 -11,-6l0 0c0,-4 4,-8 9,-9l-1 -6 -6 0c-3,1 -5,-1 -5,-2l0 0c-1,-2 1,-4 4,-4l6 -1 -3 -17c-6,-2 -11,-6 -12,-11 -1,-6 3,-11 9,-14l-3 -15 -6 0c-3,1 -5,-1 -5,-3l0 0c-1,-1 1,-3 4,-3l6 -1 -1 -8c-6,0 -11,-3 -11,-7l0 0c-1,-4 3,-7 9,-8l-1 -6 -7 1c-2,0 -5,-1 -5,-3l0 0c0,-2 2,-3 4,-4l29 -3c3,0 5,1 5,3l0 0c0,2 -1,3 -4,4l-4 0 1 6c5,0 9,3 10,6l0 0c0,4 -3,7 -7,8l1 9 3 0c3,-1 5,0 6,2l0 0c0,2 -2,4 -5,4l-3 0 2 16c7,2 12,6 13,11 0,6 -3,11 -9,14l3 17 3 0c3,-1 5,1 6,2l0 0c0,2 -2,4 -5,4l-3 1 1 6c5,0 9,3 9,6l0 1c1,3 -2,7 -7,8l1 7 4 0c2,0 5,1 5,3l0 0c0,2 -2,3 -4,4l-29 3c-2,0 -5,-1 -5,-3z"/>
   <g>
    <path class="fil1" d="M62 153c14,-3 45,-1 56,6 8,5 5,14 1,21 -3,7 -8,11 -15,15 -7,3 -17,4 -27,3 -23,-2 -30,-11 -30,-30 0,-10 4,-13 15,-15zm127 0c9,-1 20,-2 29,1 9,2 14,7 13,17 -2,20 -10,26 -34,27 -11,1 -19,-1 -26,-5 -7,-3 -11,-9 -14,-16 -7,-22 9,-22 32,-24zm-149 -52c22,-2 43,-17 56,-26 25,-18 12,4 60,8 45,5 58,-7 77,5 14,10 10,47 12,64 -30,-10 -49,-9 -82,-2 -5,1 -20,6 -24,6 -3,0 -20,-5 -25,-6 -8,-2 -18,-4 -26,-4 -25,-3 -34,-1 -54,6 0,-5 0,-11 2,-16 1,-2 2,-5 3,-8 1,-9 1,-18 1,-27zm40 -61c5,-4 17,-9 26,-12 10,-4 22,-7 34,-5 21,3 35,17 37,37 -4,-4 -11,-22 -38,-27 -25,-5 -41,3 -59,7zm139 161c14,-4 13,-5 17,-16 3,-8 1,-19 8,-22 0,5 -1,7 0,11 0,1 0,1 0,1 5,-23 15,-20 24,-52 1,-5 1,-10 3,-14 7,-12 -2,-32 -10,-44 0,-1 0,-3 4,-2 -6,-9 -16,-12 -26,-16 3,0 7,0 10,1 -8,-5 -15,-6 -24,-7 -1,-4 -2,-7 -5,-8 0,0 0,1 -1,2 -9,-16 -25,-27 -49,-32 -34,-8 -48,1 -71,7 2,-1 8,-6 10,-7 -22,7 -29,14 -39,19 1,-1 2,-3 3,-5 -12,2 -19,20 -26,28 -1,-2 -1,-4 -1,-5 -4,-1 -26,25 -27,27 0,0 -1,-1 -1,-2 -3,-1 -15,19 -12,29 -2,-2 -4,-4 -6,-6 1,14 9,15 12,16 2,14 3,29 6,41 1,7 12,29 16,33 0,-5 0,-10 -1,-15 8,3 6,7 7,15 4,18 5,20 20,23 7,2 14,3 22,3 53,1 47,-36 52,-39 4,-1 6,-2 10,0 3,3 2,15 11,26 12,15 47,15 64,10z"/>
    <path class="fil1" d="M86 398c0,-2 0,-3 0,-5 4,3 5,13 29,25 13,7 28,12 46,12 -9,-11 6,-14 20,-27 2,-3 6,-7 7,-10 1,2 0,3 -1,6 18,-9 28,-31 29,-49 2,1 3,4 4,7 13,-11 8,-52 -3,-63 -45,0 -52,0 -74,-26 -4,-4 -7,-4 -10,0 -25,29 -38,30 -75,26 -9,18 -10,46 2,61 1,-2 1,-4 2,-6 1,7 4,40 24,49z"/>
    <path class="fil1" d="M229 275c9,-13 13,-52 -13,-50 2,2 17,14 3,24 -19,15 -38,-11 -51,-22 -13,-10 -19,-3 -30,2 -11,-6 -20,-12 -32,0 -1,1 -3,3 -5,5 -6,5 -12,12 -19,16 -10,5 -21,4 -27,-2 -3,-4 -4,-8 -2,-14 2,-5 5,-6 8,-9 -21,-3 -26,28 -14,48 28,38 67,15 86,-9 5,-6 6,-5 10,0 14,16 31,30 57,27 10,-1 20,-6 29,-16z"/>
    <path class="fil2" d="M80 40c18,-4 34,-12 59,-7 27,5 34,23 38,27 -2,-20 -16,-34 -37,-37 -12,-2 -24,1 -34,5 -9,3 -21,8 -26,12z"/>
    <path class="fil2" d="M153 412c-46,2 -65,-42 -76,-68 1,27 31,83 76,68z"/>
    <path class="fil2" d="M88 339c-2,28 7,42 29,41 -20,-6 -27,-23 -29,-41z"/>
    <path class="fil2" d="M204 352c22,-14 7,-40 1,-48 12,23 9,37 -3,46 -4,2 0,3 2,2z"/>
    <g>
     <path class="fil2" d="M28 78c9,17 32,11 67,-15 -27,14 -52,25 -67,15z"/>
     <path class="fil2" d="M47 69c10,4 23,0 37,-4 -22,11 -41,17 -46,7 5,2 11,3 18,2 -4,-1 -8,-3 -9,-5z"/>
     <path class="fil2" d="M47 65c19,2 34,-13 53,-16 -8,-1 -18,1 -27,4 40,-16 41,-6 61,7 -33,-17 -59,11 -87,5z"/>
    </g>
    <g>
     <path class="fil2" d="M172 66c-2,-17 -17,-25 -37,-30 19,8 33,17 37,30z"/>
     <path class="fil2" d="M149 47c7,2 12,6 16,11 1,1 -1,4 -3,1 -2,-6 -8,-9 -13,-12z"/>
    </g>
    <g>
     <path class="fil2" d="M185 65c25,-16 18,-31 -12,-44 19,12 28,26 12,44z"/>
     <path class="fil2" d="M193 64c9,-6 13,-14 12,-24 3,2 3,6 2,9 5,-4 5,-9 0,-14 17,9 8,19 -14,29z"/>
     <path class="fil2" d="M233 49c-5,-1 -10,1 -13,5 10,-1 19,-1 24,4 0,-6 -5,-7 -12,-7 -1,-1 0,-2 1,-2z"/>
    </g>
   </g>
   <g>
    <path class="fil3" d="M30 507l325 0 89 0c11,-1 21,-3 27,-6 0,0 4,-2 5,-2 23,-15 16,-43 16,-75 0,-39 -10,-54 -57,-54 -18,0 -36,0 -54,0 -16,0 -21,3 -24,-4 -1,-2 0,-11 1,-13 2,-4 5,-3 11,-3 36,1 73,1 109,1l0 -49c1,-20 -2,-12 -69,-12 -20,0 -45,-2 -64,0 -30,2 -52,9 -53,41l-1 50c1,11 0,22 8,31 13,14 35,12 61,12 22,0 44,0 66,0 0,26 5,22 -31,22l-365 0 0 61z"/>
    <path class="fil3" d="M1020 351l73 0 0 93 -73 0 0 -93zm-69 -56l0 206c0,4 1,6 5,6l160 0c42,0 48,-37 48,-72 0,-32 5,-107 -10,-126 -8,-11 -22,-19 -40,-19l-158 0c-4,0 -5,1 -5,5z"/>
    <path class="fil3" d="M1344 431l0 -68c0,-6 1,-7 2,-12l64 0 0 93 -64 0c-1,-6 -2,-7 -2,-13zm-69 -89l0 118c0,22 19,47 43,47l114 0c15,0 25,-6 32,-14l10 -14c7,-17 4,-118 4,-143 0,-28 -22,-46 -51,-46l-104 0c-29,0 -48,21 -48,52z"/>
    <path class="fil3" d="M724 295l0 172c0,22 22,40 38,40l117 0c11,-1 19,-2 24,-3 16,-6 27,-26 27,-31l0 -178c0,-4 -1,-5 -5,-5l-59 0c-4,0 -5,1 -5,5l0 149 -68 0 0 -149c0,-4 -1,-5 -5,-5l-59 0c-4,0 -5,1 -5,5z"/>
    <path class="fil3" d="M511 295l0 56 64 0c0,13 0,27 0,41 0,16 2,25 2,39 0,14 0,28 0,42 0,24 -6,32 8,34l65 0c0,-10 0,-19 0,-29 0,-12 -2,-16 -2,-27 0,-28 2,-53 2,-84 -1,-20 -10,-17 36,-16 30,0 24,11 24,-61l-194 0c-4,0 -5,1 -5,5z"/>
    <path class="fil3" d="M1467 277c0,16 9,17 31,22 4,1 5,2 12,4l26 5c12,3 14,5 28,5 25,0 9,-28 33,-17l4 2c24,11 32,10 21,40 -3,8 -4,15 -7,22 -5,15 -10,27 -16,41l-14 29c-2,3 -3,5 -5,9l-10 18c-14,26 -2,48 22,48 22,0 32,-31 42,-52l9 -23c1,-4 2,-6 4,-12 8,-28 16,-69 16,-98 0,-43 -41,-40 -71,-50 -8,-2 -17,-4 -24,-6 -30,-9 -55,-16 -87,-16 -7,0 -14,21 -14,29z"/>
    <path class="fil3" d="M1185 295l0 206c0,4 1,6 5,6l61 0c4,0 5,-2 5,-6l0 -206c0,-4 -1,-5 -5,-5l-61 0c-4,0 -5,1 -5,5z"/>
   </g>
  </g>
 </g>
</svg>
