<?xml version="1.0" encoding="UTF-8"?>
<!DOCTYPE svg PUBLIC "-//W3C//DTD SVG 1.1//EN" "http://www.w3.org/Graphics/SVG/1.1/DTD/svg11.dtd">
<!-- Creator: CorelDRAW X8 -->
<svg xmlns="http://www.w3.org/2000/svg" xml:space="preserve" width="100%" height="100%" version="1.1" style="shape-rendering:geometricPrecision; text-rendering:geometricPrecision; image-rendering:optimizeQuality; fill-rule:evenodd; clip-rule:evenodd"
viewBox="0 0 8529 3135"
 xmlns:xlink="http://www.w3.org/1999/xlink">
 <defs>
  <style type="text/css">
   <![CDATA[
    .str0 {stroke:black;stroke-width:7.62}
    .fil0 {fill:#282829}
   ]]>
  </style>
 </defs>
 <g id="Capa_x0020_1">
  <metadata id="CorelCorpID_0Corel-Layer"/>
  <path class="fil0 str0" d="M8216 2309c411,-548 572,-2277 -556,-2162 75,96 763,591 150,1051 -849,638 -1689,-500 -2246,-956 -565,-464 -841,-141 -1310,54 -481,-259 -870,-504 -1382,5 -58,57 -125,129 -220,220 -252,242 -534,544 -846,702 -440,222 -908,198 -1173,-91 -135,-147 -189,-350 -98,-577 98,-247 218,-293 357,-409 -915,-116 -1138,1205 -602,2108 1222,1655 2909,652 3751,-412 217,-274 254,-237 450,-18 607,705 1350,1342 2473,1212 436,-50 866,-268 1252,-727z"/>
 </g>
</svg>
