<svg id="Capa_1" enable-background="new 0 0 512 512" height="512" viewBox="0 0 512 512" width="512" xmlns="http://www.w3.org/2000/svg"><g><path d="m324.827 448.58h-37.117v-38.964h-63.42v38.964h-37.117c-14.221 0-25.749 11.528-25.749 25.749v37.671h189.152v-37.671c0-14.221-11.528-25.749-25.749-25.749z"/><g><g><path d="m60.164 309.755c6.411-8.213 14.835-14.78 24.537-18.928-11.22-7.27-18.664-19.891-18.664-34.227v-65.95c0-8.284-6.716-15-15-15h-36.037c-8.284 0-15 6.716-15 15s6.716 15 15 15h21.037v50.95c0 21.164 9.352 40.175 24.127 53.155z"/><path d="m497 175.65h-36.037c-8.284 0-15 6.716-15 15v65.95c0 14.336-7.444 26.957-18.664 34.227 9.702 4.149 18.126 10.715 24.537 18.928 14.775-12.979 24.127-31.99 24.127-53.156v-50.949h21.037c8.284 0 15-6.716 15-15s-6.716-15-15-15z"/></g><g><path d="m403.054 379.616h-294.108c-17.602 0-31.872-14.269-31.872-31.872 0-17.602 14.269-31.872 31.872-31.872h294.107c17.602 0 31.872 14.269 31.872 31.872 0 17.603-14.269 31.872-31.871 31.872z"/><g><path d="m336.776 62.389v24.163c0 24.813-20.187 45-45 45h-71.552c-24.813 0-45-20.187-45-45v-24.163c-34.516 6.516-60.63 36.809-60.63 73.219v150.265h282.811v-150.265c0-36.41-26.113-66.703-60.629-73.219z"/><path d="m291.776 101.552h-71.552c-8.284 0-15-6.716-15-15v-71.552c0-8.284 6.716-15 15-15h71.552c8.284 0 15 6.716 15 15v71.552c0 8.284-6.716 15-15 15z"/></g></g></g></g></svg>